# xmcd
#
# Track frame offsets: 
#        150
#        38215
#        68999
#        86928
#        115478
#        134008
#        173055
#        200528
#        223803
#        239828
#
# Disc length: 3652 seconds
#
# Revision: 0
# Processed by: cddbd v1.4PL0 Copyright (c) Steve Scherf et al.
# Submitted via: ExactAudioCopy v0.90b4
#
DISCID=a40e420a
DTITLE=Eric Clapton - Live in Hyde Park, London June 29, 1996
DYEAR=1996
DGENRE=Blues
TTITLE0=Every Day I Have The Blues
TTITLE1=Holy Mother
TTITLE2=Tulsa Time
TTITLE3=Knockin' On Heaven's Door
TTITLE4=If I Don't Be There By Morning
TTITLE5=Rambling On My Mind
TTITLE6=Presence Of The Lord
TTITLE7=Can't Find My Way Home
TTITLE8=Smile
TTITLE9=Blues Power
EXTD=
EXTT0=
EXTT1=
EXTT2=
EXTT3=
EXTT4=
EXTT5=
EXTT6=
EXTT7=
EXTT8=
EXTT9=
PLAYORDER=
